<?xml version="1.0" encoding="UTF-8"?>
<svg width="1024" height="1024" viewBox="-50 -50 100 100" xmlns="http://www.w3.org/2000/svg">
  <style>
    .background { fill: #f0f0f0; }
    .display-bounds { fill: none; stroke: #cccccc; stroke-width: 0.2; stroke-dasharray: 5,5; }
    .clip-bounds { fill: none; stroke: #888888; stroke-width: 0.2; stroke-dasharray: 2,2; }
    .initial-point { fill: #ffaaaa; stroke: #cc0000; stroke-width: 0.2; }
    .relaxed-point { fill: #aaccff; stroke: #0000cc; stroke-width: 0.2; }
    .raw-voronoi-cell { fill: rgba(255, 220, 150, 0.3); stroke: #ffaa00; stroke-width: 0.2; }
    .clipped-voronoi-cell { fill: rgba(150, 255, 150, 0.5); stroke: #00aa00; stroke-width: 0.5; }
    .merged-polygon { fill: rgba(200, 150, 255, 0.7); stroke: #5500aa; stroke-width: 0.5; }
    .merged-polygon-coord { 
        font-family: monospace; 
        font-size: 0.440px; 
        fill: #000000; 
        stroke: white; 
        stroke-width: 0.200; 
        paint-order: stroke fill;
        text-anchor: middle;
        dominant-baseline: middle;
    }
  </style>
  <rect x="-50" y="-50" width="100" height="100" class="background" />
  <rect x="-50" y="-50" width="100" height="100" class="display-bounds" />
  <polygon points="-32.853,-0.102 -30.323,-1.227 -28.006,-1.561 -25.902,-1.102 -24.010,0.148 -22.331,2.191 -21.226,4.502 -20.694,7.080 -20.736,9.926 -21.351,13.040 -22.402,15.547 -23.890,17.447 -25.813,18.740 -28.173,19.426 -30.437,19.266 -32.605,18.262 -34.678,16.412 -36.656,13.716 -37.953,11.189 -38.570,8.831 -38.507,6.641 -37.763,4.619 -36.573,2.821 -34.936,1.248" class="merged-polygon" />
  <text x="-32.853" y="-0.102" class="merged-polygon-coord">(-32.9,-0.1)</text>
  <text x="-30.323" y="-1.227" class="merged-polygon-coord">(-30.3,-1.2)</text>
  <text x="-28.006" y="-1.561" class="merged-polygon-coord">(-28.0,-1.6)</text>
  <text x="-25.902" y="-1.102" class="merged-polygon-coord">(-25.9,-1.1)</text>
  <text x="-24.010" y="0.148" class="merged-polygon-coord">(-24.0,0.1)</text>
  <text x="-22.331" y="2.191" class="merged-polygon-coord">(-22.3,2.2)</text>
  <text x="-21.226" y="4.502" class="merged-polygon-coord">(-21.2,4.5)</text>
  <text x="-20.694" y="7.080" class="merged-polygon-coord">(-20.7,7.1)</text>
  <text x="-20.736" y="9.926" class="merged-polygon-coord">(-20.7,9.9)</text>
  <text x="-21.351" y="13.040" class="merged-polygon-coord">(-21.4,13.0)</text>
  <text x="-22.402" y="15.547" class="merged-polygon-coord">(-22.4,15.5)</text>
  <text x="-23.890" y="17.447" class="merged-polygon-coord">(-23.9,17.4)</text>
  <text x="-25.813" y="18.740" class="merged-polygon-coord">(-25.8,18.7)</text>
  <text x="-28.173" y="19.426" class="merged-polygon-coord">(-28.2,19.4)</text>
  <text x="-30.437" y="19.266" class="merged-polygon-coord">(-30.4,19.3)</text>
  <text x="-32.605" y="18.262" class="merged-polygon-coord">(-32.6,18.3)</text>
  <text x="-34.678" y="16.412" class="merged-polygon-coord">(-34.7,16.4)</text>
  <text x="-36.656" y="13.716" class="merged-polygon-coord">(-36.7,13.7)</text>
  <text x="-37.953" y="11.189" class="merged-polygon-coord">(-38.0,11.2)</text>
  <text x="-38.570" y="8.831" class="merged-polygon-coord">(-38.6,8.8)</text>
  <text x="-38.507" y="6.641" class="merged-polygon-coord">(-38.5,6.6)</text>
  <text x="-37.763" y="4.619" class="merged-polygon-coord">(-37.8,4.6)</text>
  <text x="-36.573" y="2.821" class="merged-polygon-coord">(-36.6,2.8)</text>
  <text x="-34.936" y="1.248" class="merged-polygon-coord">(-34.9,1.2)</text>
</svg>